<svg id="Layer_1" enable-background="new 0 0 512 512" height="512" viewBox="0 0 512 512" width="512" xmlns="http://www.w3.org/2000/svg"><g><path d="m462 502c22.091 0 40-17.909 40-40v-372h-78v412z" fill="#f9f9f9"/><path d="m10 10h414v160h-414z" fill="#ffee80"/><path d="m464 502h-414c-22.091 0-40-17.909-40-40v-292h414v292c0 22.091 17.909 40 40 40z" fill="#f9f9f9"/><g><path d="m509.07 82.93c-1.86-1.86-4.44-2.93-7.07-2.93h-68v-70c0-5.522-4.477-10-10-10h-414c-5.523 0-10 4.478-10 10v452c0 27.57 22.43 50 50 50h414c9.638 0 19.751-3.98 27.452-9.593 12.811-9.337 20.548-24.558 20.548-40.407v-237.141c0-5.52-4.49-10-10-10s-10 4.48-10 10v237.141c-.03 16.186-12.97 29.432-29.035 29.974-16.064-.549-28.965-13.779-28.965-29.974v-362h58v34.859c0 5.511 4.49 10 10 10s10-4.489 10-10v-44.859c0-2.63-1.07-5.21-2.93-7.07zm-489.07-62.93h394v140h-394zm30 472c-16.542 0-30-13.458-30-30v-282h394v282c0 11.246 3.733 21.638 10.023 30z"/><circle cx="502" cy="179.859" r="10"/><path d="m170 60c5.523 0 10-4.478 10-10s-4.477-10-10-10h-30.077c-5.523 0-10 4.478-10 10v80c0 5.522 4.477 10 10 10h30.077c5.523 0 10-4.478 10-10s-4.477-10-10-10h-20.077v-20h17.12c5.523 0 10-4.478 10-10s-4.477-10-10-10h-17.12v-20z"/><path d="m302.484 40.225c-5.415-1.097-10.692 2.391-11.795 7.802l-9.79 48.044-15.897-49.147c-1.7-5.255-7.336-8.139-12.592-6.438-3.476 1.125-5.902 3.975-6.663 7.294l-15.425 48.436-10.045-48.135c-1.128-5.406-6.422-8.871-11.832-7.746-5.406 1.128-8.875 6.426-7.746 11.832 0 0 16.662 79.658 16.838 80.13 1.722 4.62 6.187 7.703 11.136 7.703.04 0 .08 0 .12-.001 4.995-.05 9.455-3.234 11.096-7.924.031-.09 15.698-49.28 15.698-49.28s15.923 49.215 15.973 49.353c1.722 4.62 6.187 7.703 11.136 7.703.04 0 .08 0 .12-.001 4.995-.05 9.455-3.234 11.096-7.924.149-.427 16.377-79.906 16.377-79.906 1.1-5.412-2.393-10.693-7.805-11.795z"/><path d="m100 40c-5.523 0-10 4.478-10 10v46.023l-31.485-51.118c-2.345-3.808-6.933-5.594-11.24-4.377-4.304 1.219-7.275 5.148-7.275 9.621v79.851c0 5.522 4.477 10 10 10s10-4.478 10-10v-44.547l29.642 48.124c2.711 4.393 7.674 6.452 12.353 5.124 4.863-1.38 8.005-5.854 8.005-11.397v-77.304c0-5.522-4.477-10-10-10z"/><path d="m370.483 81.293c-9.373-3.593-18.106-7.503-20.871-8.76-2.162-1.843-1.961-4.568-1.838-5.405.207-1.407 1.201-4.842 5.948-6.328 10.481-3.279 20.301 4.757 20.596 5.001 4.16 3.585 10.44 3.144 14.057-.999 3.633-4.16 3.206-10.478-.954-14.11-.737-.643-18.279-15.676-39.674-8.978-10.637 3.329-18.208 11.953-19.76 22.505-1.474 10.021 2.707 19.697 10.911 25.254.445.302 12.469 5.912 24.429 10.496 3.369 1.291 11.081 4.956 9.946 11.091-.813 4.395-5.918 8.94-13.053 8.94-7.477 0-14.69-3.152-19.295-8.432-3.63-4.161-9.947-4.593-14.109-.963s-4.593 9.947-.963 14.109c8.348 9.571 21.196 15.285 34.368 15.285 16.246 0 30.006-10.641 32.719-25.302 2.069-11.193-2.741-25.847-22.457-33.404z"/><path d="m384 340h-80c-5.523 0-10 4.478-10 10s4.477 10 10 10h80c5.523 0 10-4.478 10-10s-4.477-10-10-10z"/><path d="m384 380h-80c-5.523 0-10 4.478-10 10s4.477 10 10 10h80c5.523 0 10-4.478 10-10s-4.477-10-10-10z"/><path d="m354 420h-50c-5.523 0-10 4.478-10 10s4.477 10 10 10h50c5.523 0 10-4.478 10-10s-4.477-10-10-10z"/><path d="m263.999 339.999h-214c-5.523 0-10 4.478-10 10s4.477 10 10 10h214c5.523 0 10-4.478 10-10s-4.478-10-10-10z"/><path d="m263.999 379.999h-90c-5.523 0-10 4.478-10 10s4.477 10 10 10h90c5.523 0 10-4.478 10-10s-4.478-10-10-10z"/><path d="m49.999 399.999h79c5.523 0 10-4.478 10-10s-4.477-10-10-10h-79c-5.523 0-10 4.478-10 10s4.477 10 10 10z"/><path d="m243.999 419.999h-194c-5.523 0-10 4.478-10 10s4.477 10 10 10h194c5.523 0 10-4.478 10-10s-4.478-10-10-10z"/><path d="m110.598 299.489c5.193 1.878 10.927-.808 12.806-6.001l4.72-13.046h31.796l4.667 13.019c1.464 4.084 5.311 6.628 9.414 6.628 1.12 0 2.259-.189 3.374-.59 5.199-1.863 7.903-7.589 6.039-12.788l-28.277-78.877c-.032-.089-.065-.178-.1-.266-1.777-4.547-6.057-7.482-10.906-7.482-.004 0-.009 0-.013 0-4.854.005-9.134 2.951-10.903 7.506-.028.073-.056.146-.082.219l-28.536 78.873c-1.879 5.193.807 10.926 6.001 12.805zm33.496-63.19 8.655 24.144h-17.39z"/><path d="m204.037 290.086c0 5.522 4.477 10 10 10s10-4.478 10-10v-20.341l33.519 28.014c1.871 1.564 4.146 2.327 6.407 2.327 2.86 0 5.701-1.221 7.678-3.587 3.542-4.238 2.978-10.544-1.26-14.086l-40.576-33.912 37.286-29.57c4.327-3.432 5.053-9.722 1.621-14.049s-9.722-5.053-14.049-1.621l-30.626 24.289v-17.464c0-5.522-4.477-10-10-10s-10 4.478-10 10z"/><path d="m59.923 300.086c5.523 0 10-4.478 10-10v-30h17.12c5.523 0 10-4.478 10-10s-4.477-10-10-10h-17.12v-20h20.077c5.523 0 10-4.478 10-10s-4.477-10-10-10h-30.077c-5.523 0-10 4.478-10 10v80c0 5.522 4.477 10 10 10z"/><path d="m370.92 255.08c5.52 0 10-4.48 10-9.99v-35c0-5.521-4.48-10.01-10-10.01-5.51 0-10 4.489-10 10.01v35c0 5.51 4.49 9.99 10 9.99z"/><path d="m370.92 300.08c5.52 0 10-4.48 10-9.99 0-5.521-4.48-10.01-10-10.01-5.51 0-10 4.489-10 10.01 0 5.51 4.49 9.99 10 9.99z"/><path d="m303.923 300.086h30.077c5.523 0 10-4.478 10-10s-4.477-10-10-10h-20.077v-20h17.12c5.523 0 10-4.478 10-10s-4.477-10-10-10h-17.12v-20h20.077c5.523 0 10-4.478 10-10s-4.477-10-10-10h-30.077c-5.523 0-10 4.478-10 10v80c0 5.522 4.477 10 10 10z"/></g></g></svg>