<svg id="Capa_1" enable-background="new 0 0 506.557 506.557" height="512" viewBox="0 0 506.557 506.557" width="512" xmlns="http://www.w3.org/2000/svg"><path d="m418.108 496.557h-348.168c-32.025 0-57.987-25.962-57.987-57.987v-408.57c0-11.046 8.954-20 20-20h291.735c11.046 0 20 8.954 20 20v232.27" fill="#ffda8f"/><path d="m492.528 382.418v39.72c0 41.101-33.319 74.42-74.42 74.42-41.101 0-74.42-33.319-74.42-74.42v-159.868h128.839c11.046 0 20 8.954 20 20v19.161" fill="#ffc144"/><path d="m51.782 50.156h253.969v120.531h-253.969z" fill="#ff7b7b"/><path d="m493.566 372.417c-5.523 0-10 4.477-10 10v39.72c0 35.521-28.898 64.419-64.419 64.419s-64.42-28.898-64.42-64.419v-149.867h118.839c5.514 0 10 4.486 10 10v19.162c0 12.84 20 12.859 20 0v-19.162c0-16.542-13.458-30-30-30h-118.84v-222.27c0-16.542-13.458-30-30-30h-291.735c-16.542 0-30 13.458-30 30v408.57c0 37.488 30.499 67.986 67.987 67.986h348.168c46.549 0 84.419-37.871 84.419-84.419v-39.72c.001-5.522-4.476-10-9.999-10zm-158.84 49.72c0 25.801 11.647 48.922 29.946 64.419h-293.694c-26.46 0-47.987-21.526-47.987-47.986v-408.57c0-5.514 4.486-10 10-10h291.735c5.514 0 10 4.486 10 10z"/><path d="m90.841 224.405h74.281c12.84 0 12.859-20 0-20h-74.281c-12.811 0-12.836 20 0 20z"/><path d="m90.841 264.477h177.927c12.84 0 12.859-20 0-20h-177.927c-12.811 0-12.836 20 0 20z"/><path d="m90.841 304.549h138.406c12.84 0 12.859-20 0-20h-138.406c-12.811 0-12.836 20 0 20z"/><path d="m269.162 404.766h-74.28c-12.84 0-12.859 20 0 20h74.28c12.84 0 12.858-20 0-20z"/><path d="m90.841 344.622h177.927c12.84 0 12.859-20 0-20h-177.927c-12.811 0-12.836 20 0 20z"/><path d="m278.768 374.694c0-5.523-4.477-10-10-10h-177.927c-12.811 0-12.836 20 0 20h177.927c5.523 0 10-4.477 10-10z"/><path d="m306.789 40.156h-253.969c-5.523 0-10 4.477-10 10v120.531c0 5.523 4.477 10 10 10h253.969c5.523 0 10-4.477 10-10v-120.531c0-5.523-4.477-10-10-10zm-10 120.531h-233.969v-100.531h233.969z"/><path d="m89.497 140.739c3.68 2.003 12.64 1.757 12.64-4.1v-18.719h10.334c6.82 0 6.67-12.404 0-12.404h-10.334v-10.244h18.797c6.91 0 7.01-13.658 0-13.658h-27.193c-3.127 0-6.829 1.605-6.829 5.262v49.764c0 1.23.449 2.939 2.585 4.099z"/><path d="m125.235 135.386c0 6.011 12.974 9.677 14.781 3.137l2.364-8.69h14.243l2.365 8.695c1.925 6.982 16.33 2.585 14.557-4.443l-14.661-47.824c-2.265-7.055-16.596-7.029-18.85.021l-14.597 47.875c-.141.563-.202.93-.202 1.229zm20.469-17.957 3.757-13.795 3.758 13.795z"/><path d="m185.733 140.739c3.68 2.003 12.64 1.758 12.64-4.1v-13.67l1.689-2.172 12.229 18.592c4.419 7.122 17.976-.213 13.502-7.489l-15.63-23.935 12.226-15.36c4.698-6.585-7.614-15.187-12.086-8.632l-11.929 16.905v-14.08c0-7.099-15.225-7.1-15.225 0v49.842c-.001 1.23.447 2.939 2.584 4.099z"/><path d="m237.612 140.693c1.281.802 2.814 1.208 4.558 1.208h27.899c7.009 0 6.909-13.658 0-13.658h-19.503v-10.322h10.255c6.82 0 6.67-12.404 0-12.404h-10.255v-10.245h19.503c6.909 0 7.009-13.658 0-13.658h-27.899c-3.127 0-6.829 1.605-6.829 5.262v49.764c0 1.724.786 3.126 2.271 4.053z"/><path d="m278.397 290.723c-2.095-5.03-8.018-7.498-13.06-5.41-5.033 2.084-7.494 8.026-5.41 13.06 2.084 5.033 8.025 7.5 13.06 5.41 5.027-2.086 7.508-8.025 5.41-13.06z"/><path d="m502.797 338.353c-1.548-3.716-5.243-6.173-9.268-6.17-4.448.003-8.384 3.071-9.594 7.326-2.489 8.754 7.672 15.95 15.181 10.983 3.926-2.597 5.489-7.799 3.681-12.139z"/></svg>